<?xml version="1.0"?><svg viewBox="0 0 512 512" xmlns="http://www.w3.org/2000/svg"><defs><style>.cls-1{fill:#767c93;}.cls-2{opacity:0.1;}.cls-3{fill:#fff;}.cls-4{opacity:0.3;}.cls-5{fill:#3f456b;}.cls-6{fill:#9398aa;}.cls-7{fill:#dae1ea;}.cls-8{fill:#9ed8cd;}</style></defs><title/><g id="Colors"><rect class="cls-1" height="208" rx="30" ry="30" width="96" x="65" y="240"/><path class="cls-1" d="M62.69,400h0C36.9,400,16,384.33,16,365V323c0-19.33,20.9-35,46.69-35h0"/><g class="cls-2"><path class="cls-3" d="M160.76,271.67S155.75,256,130.5,256H99s-19-1-19,15.5V443s-15-3.33-15-27V273s-1-34,31.5-34H135S160.76,239.33,160.76,271.67Z"/></g><g class="cls-4"><polygon class="cls-5" points="161 429.67 131.67 452 96 452 65 431.6 65 379 161 379 161 429.67"/></g><g class="cls-2"><rect class="cls-3" height="50" width="96" x="65" y="275"/></g><g class="cls-4"><path class="cls-5" d="M128.33,244.08S145,248.33,145,273.67V413s1.33,19-16.67,19H96s-27,1.33-27.67-18c0,0-6,34,28.17,34H129s32,1,32-36V274S162.66,238.83,128.33,244.08Z"/></g><g class="cls-4"><path class="cls-5" d="M20,357.23s3.09,24.17,42.06,22.71v19.73S11.3,398.11,20,357.23Z"/></g><g class="cls-4"><polygon class="cls-5" points="46.08 397.67 63 399.67 63 286.33 46.08 290.33 46.08 397.67"/></g><g class="cls-2"><path class="cls-3" d="M20,330.61s3.09-24.18,42.06-22.71V288.16S11.3,289.73,20,330.61Z"/></g><rect class="cls-1" height="208" rx="30" ry="30" width="96" x="352" y="240"/><path class="cls-1" d="M448.33,401h0c26.88,0,48.67-15.95,48.67-35.62V322.62C497,303,475.21,287,448.33,287h0"/><g class="cls-2"><path class="cls-3" d="M352.25,271.67s5-15.67,30.26-15.67H414s19-1,19,15.5V443s15-3.33,15-27V273s1-34-31.49-34H378S352.25,239.33,352.25,271.67Z"/></g><g class="cls-4"><polygon class="cls-5" points="352 429.67 381.35 452 417.01 452 448 431.6 448 379 352 379 352 429.67"/></g><g class="cls-2"><rect class="cls-3" height="50" width="96" x="352" y="275"/></g><g class="cls-4"><path class="cls-5" d="M384.67,244.08S368,248.33,368,273.67V413s-1.32,19,16.68,19H417s27,1.33,27.67-18c0,0,6,34-28.17,34H384s-32,1-32-36V274S350.34,238.83,384.67,244.08Z"/></g><g class="cls-4"><path class="cls-5" d="M492.83,357.46s-3.67,24.61-43.85,23.12v20.09S501.9,399.08,492.83,357.46Z"/></g><g class="cls-4"><rect class="cls-5" height="113.33" width="17.64" x="448" y="287.33"/></g><g class="cls-2"><path class="cls-3" d="M492.83,330.37s-3.67-24.61-43.85-23.12V287.17S501.9,288.76,492.83,330.37Z"/></g><g data-name="&lt;编组&gt;" id="_编组_"><path class="cls-6" d="M456.68,167.31c-30.32,14.31-37.2-7.81-37.2-7.81C400.92,107,357.27,50,255.23,50c-101.6,0-144.55,57-162.55,109.5,0,0-5.71,20.86-37.19,7.68C74.64,97.08,124.85,15,255,15,385.76,15,436.87,97.18,456.68,167.31Z"/></g><g class="cls-4"><path class="cls-5" d="M60.33,152.67S77,164,82,149,121,35,256,35,427,141,427,141s3.9,20.28,25.45,12.64L457,167s-29,17-38-8S382,50,255,50,93,159,93,159s-11,23-38,8Z"/></g><g class="cls-4"><path class="cls-5" d="M260.65,402c-10.13,0-17.17-7.16-20.93-21.29-2.65-9.95-3.88-23.84-3.88-43.71v-7.5a4.71,4.71,0,0,1,0-.53c.19-1.89.16-8-2.36-10.75a5,5,0,0,0-4.06-1.53,5.49,5.49,0,0,0-4.34,1.65c-2.7,2.82-3.09,8.81-3,10.83s.89,13.49-5.27,20.27a14.56,14.56,0,0,1-11.11,4.75,14.18,14.18,0,0,1-10.56-4.43c-3.86-4.07-5.21-10-5.65-14.32H163a5,5,0,0,1,0-10h31.32a5,5,0,0,1,5,5.25c-.1,2.21.25,9.21,3.1,12.19a4.22,4.22,0,0,0,3.3,1.31,4.55,4.55,0,0,0,3.71-1.47c2.68-3,3-9.86,2.7-12.74,0-.07,0-.14,0-.21-.06-1.19-.44-11.79,5.73-18.3a15.56,15.56,0,0,1,11.61-4.78A15,15,0,0,1,241,311.55c5.59,6.22,5.06,16.09,4.88,18.19V337c0,23.61,1.54,55,14.81,55s14.81-31.39,14.81-55V322c0-19.87,1.24-33.76,3.89-43.71,3.75-14.13,10.8-21.29,20.92-21.29,10.47,0,17.62,7.18,21.25,21.33,3.14,12.23,3.56,28.94,3.56,43.67v.27l-.18,3.17H350a5,5,0,0,1,0,10H319.62a5,5,0,0,1-5-5.28l.45-8.3c0-28.51-1.81-54.86-14.81-54.86-13.27,0-14.81,31.39-14.81,55v15c0,19.87-1.23,33.76-3.88,43.71C277.82,394.84,270.78,402,260.65,402Z"/></g><circle class="cls-7" cx="471" cy="344" r="11"/><circle class="cls-7" cx="42" cy="344" r="11"/><path class="cls-8" d="M42,380a5,5,0,0,1-5-5v-1a5,5,0,0,1,10,0v1A5,5,0,0,1,42,380Z"/><rect class="cls-1" height="34" rx="10" ry="10" transform="translate(-23.51 62.68) rotate(-7.7)" width="44" x="432" y="189"/><g class="cls-4"><rect class="cls-5" height="14" transform="translate(-24.57 62.85) rotate(-7.7)" width="42" x="433.7" y="207.03"/></g><rect class="cls-1" height="34" rx="10" ry="10" transform="translate(97.94 415.78) rotate(-175.58)" width="44" x="35" y="189"/><g class="cls-4"><rect class="cls-5" height="14" transform="translate(96.84 431.86) rotate(-175.58)" width="42" x="35.76" y="207.06"/></g></g><g id="Lines"><path class="cls-5" d="M131,453H95a35,35,0,0,1-35-35V270a35,35,0,0,1,35-35h36a35,35,0,0,1,35,35V418A35,35,0,0,1,131,453ZM95,245a25,25,0,0,0-25,25V418a25,25,0,0,0,25,25h36a25,25,0,0,0,25-25V270a25,25,0,0,0-25-25Z"/><path class="cls-5" d="M62.69,405C34.19,405,11,387.06,11,365V323c0-22.06,23.19-40,51.69-40a5,5,0,0,1,0,10C39.7,293,21,306.46,21,323v42c0,16.54,18.7,30,41.69,30a5,5,0,0,1,0,10Z"/><path class="cls-5" d="M418,453H382a35,35,0,0,1-35-35V270a35,35,0,0,1,35-35h36a35,35,0,0,1,35,35V418A35,35,0,0,1,418,453ZM382,245a25,25,0,0,0-25,25V418a25,25,0,0,0,25,25h36a25,25,0,0,0,25-25V270a25,25,0,0,0-25-25Z"/><path class="cls-5" d="M448.33,406a5,5,0,1,1,0-10c24.08,0,43.67-13.74,43.67-30.62V322.62c0-16.88-19.59-30.62-43.67-30.62a5,5,0,1,1,0-10c29.59,0,53.67,18.22,53.67,40.62v42.76C502,387.78,477.92,406,448.33,406Z"/><path class="cls-5" d="M468.82,337a5,5,0,0,1-5-5V265c0-.09,0-.19,0-.28s.95-17.62-1.78-42.79a5,5,0,1,1,9.95-1.07c2.71,25.09,1.92,42.38,1.82,44.28V332A5,5,0,0,1,468.82,337Z"/><path class="cls-5" d="M50.65,192.61a5.63,5.63,0,0,1-1-.1,5,5,0,0,1-3.91-5.89C55.39,138.8,74,99.69,101.05,70.38,138,30.31,189.81,10,255,10S372.15,30.14,409.58,69.86C437,99,456.13,137.91,466.34,185.52a5,5,0,0,1-9.78,2.09c-9.82-45.8-28.08-83.11-54.26-110.89C366.84,39.08,317.27,20,255,20S143.4,39.23,108.4,77.16c-25.79,28-43.57,65.44-52.85,111.43A5,5,0,0,1,50.65,192.61Z"/><path class="cls-5" d="M44.18,337a5,5,0,0,1-5-5V265.15c-.12-1.95-1-18.5,1.29-42.64a5,5,0,1,1,10,.94,290.38,290.38,0,0,0-1.25,41.23c0,.1,0,.21,0,.32v67A5,5,0,0,1,44.18,337Z"/><path class="cls-5" d="M438.39,177.14A26.47,26.47,0,0,1,427.64,175a24.5,24.5,0,0,1-12.89-13.85C404,130.8,387.48,106.51,365.54,89,337.4,66.42,300.29,55,255.23,55c-44.85,0-81.68,11.42-109.48,33.93-21.65,17.54-37.91,41.79-48.3,72.08A22.17,22.17,0,0,1,86,174c-8.37,4.07-19.29,3.34-32.47-2.17a5,5,0,1,1,3.87-9.22c10.15,4.25,18.47,5.1,24,2.48a12.27,12.27,0,0,0,6.4-6.93,2.25,2.25,0,0,1,.08-.24C105.59,106.38,148.94,45,255.23,45,362,45,406,106.36,424.19,157.83l.06.18a14.22,14.22,0,0,0,7.55,7.87c5.56,2.38,13.42,1.31,22.74-3.09a5,5,0,1,1,4.27,9C451.32,175.37,444.49,177.14,438.39,177.14Z"/><path class="cls-5" d="M471,360a16,16,0,1,1,16-16A16,16,0,0,1,471,360Zm0-22a6,6,0,1,0,6,6A6,6,0,0,0,471,338Z"/><path class="cls-5" d="M42,360a16,16,0,1,1,16-16A16,16,0,0,1,42,360Zm0-22a6,6,0,1,0,6,6A6,6,0,0,0,42,338Z"/><path class="cls-5" d="M443,229.55a15,15,0,0,1-14.86-13l-1.87-13.87a15,15,0,0,1,12.85-16.87l23.78-3.22a15,15,0,0,1,16.88,12.86l1.87,13.87a15,15,0,0,1-12.85,16.87l-23.78,3.22A15.47,15.47,0,0,1,443,229.55ZM465,192.46a5.27,5.27,0,0,0-.68,0l-23.78,3.22a5,5,0,0,0-4.28,5.62l1.87,13.87a5,5,0,0,0,5.63,4.29l23.78-3.22h0a5,5,0,0,0,4.28-5.62l-1.87-13.87A5,5,0,0,0,465,192.46Z"/><path class="cls-5" d="M68.44,228.91c-.39,0-.78,0-1.17,0L43.34,227h0a15,15,0,0,1-13.8-16.11l1.08-14a15,15,0,0,1,16.11-13.8L70.66,185a15,15,0,0,1,13.8,16.11l-1.08,14a15,15,0,0,1-14.94,13.85ZM44.11,217,68,218.89a5,5,0,0,0,5.37-4.6l1.08-14a5,5,0,0,0-4.6-5.37L46,193.11a5,5,0,0,0-5.37,4.6l-1.08,14a5,5,0,0,0,4.6,5.37Z"/><path class="cls-5" d="M419,500a5,5,0,0,1-4.95-4.36c-.08-.63-1.89-15.65,7.56-26.4,6-6.79,14.86-10.24,26.4-10.24,6.35,0,11-1.77,14.31-5.43,6.55-7.28,5.4-19.91,5.38-20a4.61,4.61,0,0,1,0-.53V396.23a5,5,0,0,1,10,0v36.54c.2,2.39,1.09,17.46-7.92,27.49-5.21,5.8-12.53,8.74-21.75,8.74-8.54,0-14.9,2.3-18.89,6.85-6.4,7.27-5.17,18.4-5.15,18.51a5,5,0,0,1-4.32,5.6A4.73,4.73,0,0,1,419,500Z"/></g></svg>